<svg width="319" height="165" viewBox="0 0 319 165" fill="none" xmlns="http://www.w3.org/2000/svg">
<path d="M0 164.998V5.46833H72.4586C89.7757 5.46833 105.042 8.81087 118.258 15.4959C131.474 22.0291 141.803 31.2211 149.246 43.0719C156.69 54.9227 160.411 68.9765 160.411 85.2334C160.411 101.338 156.69 115.392 149.246 127.395C141.803 139.246 131.474 148.514 118.258 155.199C105.042 161.732 89.7757 164.998 72.4586 164.998H0Z" fill="#1E1E1E"/>
<path d="M253.149 165C240.845 165 229.376 163.025 218.743 159.075C208.261 154.972 199.147 149.199 191.4 141.754C183.653 134.309 177.577 125.573 173.171 115.546C168.918 105.518 166.791 94.5027 166.791 82.5C166.791 70.4973 168.918 59.482 173.171 49.4544C177.577 39.4268 183.653 30.6906 191.4 23.2459C199.299 15.8011 208.489 10.1036 218.971 6.1533C229.452 2.05111 240.921 0 253.377 0C267.2 0 279.657 2.43095 290.746 7.29282C301.987 12.0027 311.405 18.9917 319 28.2597L295.303 50.1381C289.834 43.9088 283.758 39.2748 277.074 36.2362C270.39 33.0456 263.099 31.4503 255.2 31.4503C247.757 31.4503 240.921 32.6657 234.693 35.0967C228.465 37.5276 223.072 41.0221 218.515 45.5801C213.958 50.1381 210.388 55.5318 207.806 61.761C205.375 67.9903 204.16 74.9033 204.16 82.5C204.16 90.0967 205.375 97.0097 207.806 103.239C210.388 109.468 213.958 114.862 218.515 119.42C223.072 123.978 228.465 127.472 234.693 129.903C240.921 132.334 247.757 133.55 255.2 133.55C263.099 133.55 270.39 132.03 277.074 128.992C283.758 125.801 289.834 121.015 295.303 114.634L319 136.512C311.405 145.78 301.987 152.845 290.746 157.707C279.657 162.569 267.125 165 253.149 165Z" fill="#1E1E1E"/>
</svg>
