<svg width="430" height="203" viewBox="0 0 430 203" fill="none" xmlns="http://www.w3.org/2000/svg">
<path d="M22.8413 34.0338H63.6293V52.6205H22.8413V34.0338ZM24.5983 68.6955H70.5319V87.9101H0V0H68.9004V19.2146H24.5983V68.6955Z" fill="#F7F7F7"/>
<path d="M74.5499 87.9101L112.953 34.5361L112.828 52.2437L75.9304 0H103.917L127.512 34.0338L115.589 34.1594L138.807 0H165.664L128.767 51.239V33.657L167.672 87.9101H139.058L115.087 52.1181H126.508L102.913 87.9101H74.5499Z" fill="#F7F7F7"/>
<path d="M173.423 87.9101V0H213.583C221.615 0 228.518 1.29772 234.291 3.89316C240.148 6.48861 244.666 10.2562 247.845 15.1959C251.025 20.0519 252.614 25.8288 252.614 32.5267C252.614 39.1409 251.025 44.876 247.845 49.732C244.666 54.588 240.148 58.3556 234.291 61.0347C228.518 63.6302 221.615 64.9279 213.583 64.9279H187.228L198.272 54.1275V87.9101H173.423ZM198.272 56.7648L187.228 45.3365H212.077C217.265 45.3365 221.113 44.2062 223.623 41.9457C226.217 39.6851 227.514 36.5455 227.514 32.5267C227.514 28.4243 226.217 25.2428 223.623 22.9822C221.113 20.7217 217.265 19.5914 212.077 19.5914H187.228L198.272 8.16308V56.7648Z" fill="#F7F7F7"/>
<path d="M287.571 34.0338H328.359V52.6205H287.571V34.0338ZM289.328 68.6955H335.262V87.9101H264.73V0H333.63V19.2146H289.328V68.6955Z" fill="#F7F7F7"/>
<path d="M349.051 87.9101V0H389.212C397.244 0 404.147 1.29772 409.92 3.89316C415.776 6.48861 420.295 10.2562 423.474 15.1959C426.653 20.0519 428.243 25.8288 428.243 32.5267C428.243 39.1409 426.653 44.876 423.474 49.732C420.295 54.5043 415.776 58.1881 409.92 60.7836C404.147 63.2953 397.244 64.5512 389.212 64.5512H362.857L373.901 54.1275V87.9101H349.051ZM403.394 87.9101L381.556 55.8857H408.037L430 87.9101H403.394ZM373.901 56.7648L362.857 45.3365H387.706C392.893 45.3365 396.742 44.2062 399.252 41.9457C401.846 39.6851 403.143 36.5455 403.143 32.5267C403.143 28.4243 401.846 25.2428 399.252 22.9822C396.742 20.7217 392.893 19.5914 387.706 19.5914H362.857L373.901 8.16308V56.7648Z" fill="#F7F7F7"/>
<path d="M0 201.168V113.258H24.8493V201.168H0Z" fill="#F7F7F7"/>
<path d="M65.3697 147.292H106.158V165.879H65.3697V147.292ZM67.1267 181.954H113.06V201.168H42.5284V113.258H111.429V132.473H67.1267V181.954Z" fill="#F7F7F7"/>
<path d="M126.85 201.168V113.258H147.307L195.75 171.781H186.087V113.258H210.434V201.168H189.977L141.533 142.645H151.197V201.168H126.85Z" fill="#F7F7F7"/>
<path d="M271.762 202.927C264.818 202.927 258.375 201.838 252.435 199.661C246.578 197.401 241.474 194.219 237.124 190.117C232.857 186.014 229.51 181.2 227.083 175.674C224.657 170.065 223.444 163.911 223.444 157.213C223.444 150.515 224.657 144.404 227.083 138.878C229.51 133.268 232.857 128.412 237.124 124.31C241.474 120.207 246.578 117.068 252.435 114.891C258.375 112.63 264.818 111.5 271.762 111.5C279.878 111.5 287.115 112.923 293.474 115.77C299.916 118.617 305.271 122.719 309.538 128.077L293.725 142.394C290.88 139.045 287.743 136.492 284.312 134.733C280.965 132.975 277.2 132.096 273.017 132.096C269.419 132.096 266.114 132.682 263.102 133.854C260.09 135.026 257.497 136.743 255.321 139.003C253.23 141.18 251.556 143.817 250.301 146.915C249.13 150.013 248.544 153.446 248.544 157.213C248.544 160.981 249.13 164.414 250.301 167.511C251.556 170.609 253.23 173.288 255.321 175.549C257.497 177.726 260.09 179.4 263.102 180.572C266.114 181.744 269.419 182.33 273.017 182.33C277.2 182.33 280.965 181.451 284.312 179.693C287.743 177.935 290.88 175.381 293.725 172.032L309.538 186.349C305.271 191.624 299.916 195.726 293.474 198.657C287.115 201.503 279.878 202.927 271.762 202.927Z" fill="#F7F7F7"/>
<path d="M343.459 147.292H384.247V165.879H343.459V147.292ZM345.216 181.954H391.149V201.168H320.617V113.258H389.518V132.473H345.216V181.954Z" fill="#F7F7F7"/>
</svg>
