<svg width="681" height="346" viewBox="0 0 681 346" fill="none" xmlns="http://www.w3.org/2000/svg">
<path d="M68.6842 1.74247L93.3209 1.74247L93.3209 88.8659H68.6842L68.6842 1.74247ZM35.0887 88.8659H10.4519L10.4519 1.74247L35.0887 1.74247L35.0887 88.8659ZM70.4262 54.8878L33.3467 54.8878V34.476L70.4262 34.476L70.4262 54.8878Z" fill="#1E1E1E"/>
<path d="M154.622 90.6084C147.654 90.6084 141.225 89.4882 135.336 87.2479C129.446 85.0076 124.303 81.8545 119.907 77.7888C115.593 73.64 112.234 68.8275 109.828 63.3512C107.422 57.8749 106.22 51.8592 106.22 45.3042C106.22 38.7492 107.422 32.7335 109.828 27.2572C112.234 21.7809 115.593 17.0098 119.907 12.9441C124.303 8.79532 129.446 5.60079 135.336 3.36048C141.225 1.12016 147.654 0 154.622 0C161.673 0 168.102 1.12016 173.908 3.36048C179.798 5.60079 184.899 8.79532 189.213 12.9441C193.526 17.0098 196.886 21.7809 199.292 27.2572C201.78 32.7335 203.024 38.7492 203.024 45.3042C203.024 51.8592 201.78 57.9163 199.292 63.4756C196.886 68.952 193.526 73.723 189.213 77.7888C184.899 81.8545 179.798 85.0076 173.908 87.2479C168.102 89.4882 161.673 90.6084 154.622 90.6084ZM154.622 70.1966C157.94 70.1966 161.009 69.6158 163.83 68.4541C166.733 67.2925 169.222 65.633 171.295 63.4756C173.452 61.2353 175.111 58.5801 176.272 55.5101C177.517 52.44 178.139 49.038 178.139 45.3042C178.139 41.4873 177.517 38.0854 176.272 35.0983C175.111 32.0282 173.452 29.4145 171.295 27.2572C169.222 25.0169 166.733 23.3159 163.83 22.1542C161.009 20.9926 157.94 20.4118 154.622 20.4118C151.304 20.4118 148.193 20.9926 145.29 22.1542C142.47 23.3159 139.981 25.0169 137.824 27.2572C135.75 29.4145 134.091 32.0282 132.847 35.0983C131.686 38.0854 131.105 41.4873 131.105 45.3042C131.105 49.038 131.686 52.44 132.847 55.5101C134.091 58.5801 135.75 61.2353 137.824 63.4756C139.981 65.633 142.47 67.2925 145.29 68.4541C148.193 69.6158 151.304 70.1966 154.622 70.1966Z" fill="#1E1E1E"/>
<path d="M215.928 88.8659L215.928 1.74247L236.21 1.74247L284.239 59.7418H274.658V1.74247L298.797 1.74247V88.8659H278.515L230.486 30.8666L240.067 30.8666L240.067 88.8659L215.928 88.8659Z" fill="#1E1E1E"/>
<path d="M360.098 90.6084C353.13 90.6084 346.701 89.4882 340.812 87.2479C334.922 85.0076 329.779 81.8545 325.383 77.7888C321.069 73.64 317.71 68.8275 315.304 63.3512C312.898 57.8749 311.696 51.8592 311.696 45.3042C311.696 38.7492 312.898 32.7335 315.304 27.2572C317.71 21.7809 321.069 17.0098 325.383 12.9441C329.779 8.79532 334.922 5.60079 340.812 3.36048C346.701 1.12016 353.13 0 360.098 0C367.149 0 373.578 1.12016 379.384 3.36048C385.274 5.60079 390.376 8.79532 394.689 12.9441C399.003 17.0098 402.362 21.7809 404.768 27.2572C407.256 32.7335 408.5 38.7492 408.5 45.3042C408.5 51.8592 407.256 57.9163 404.768 63.4756C402.362 68.952 399.003 73.723 394.689 77.7888C390.376 81.8545 385.274 85.0076 379.384 87.2479C373.578 89.4882 367.149 90.6084 360.098 90.6084ZM360.098 70.1966C363.416 70.1966 366.485 69.6158 369.306 68.4541C372.209 67.2925 374.698 65.633 376.771 63.4756C378.928 61.2353 380.587 58.5801 381.749 55.5101C382.993 52.44 383.615 49.038 383.615 45.3042C383.615 41.4873 382.993 38.0854 381.749 35.0983C380.587 32.0282 378.928 29.4145 376.771 27.2572C374.698 25.0169 372.209 23.3159 369.306 22.1542C366.485 20.9926 363.416 20.4118 360.098 20.4118C356.78 20.4118 353.669 20.9926 350.766 22.1542C347.946 23.3159 345.457 25.0169 343.3 27.2572C341.227 29.4145 339.568 32.0282 338.323 35.0983C337.162 38.0854 336.581 41.4873 336.581 45.3042C336.581 49.038 337.162 52.44 338.323 55.5101C339.568 58.5801 341.227 61.2353 343.3 63.4756C345.457 65.633 347.946 67.2925 350.766 68.4541C353.669 69.6158 356.78 70.1966 360.098 70.1966Z" fill="#1E1E1E"/>
<path d="M461.594 90.6084C448.737 90.6084 438.7 87.0819 431.483 80.0291C424.266 72.9762 420.658 62.9778 420.658 50.0337V1.74247L445.294 1.74247V49.287C445.294 56.7547 446.746 62.1066 449.649 65.3426C452.635 68.5786 456.7 70.1966 461.843 70.1966C466.986 70.1966 471.009 68.5786 473.913 65.3426C476.816 62.1066 478.268 56.7547 478.268 49.287V1.74247L502.531 1.74247V50.0337C502.531 62.9778 498.923 72.9762 491.706 80.0291C484.489 87.0819 474.452 90.6084 461.594 90.6084Z" fill="#1E1E1E"/>
<path d="M519.221 88.8659V1.74247L559.038 1.74247C567.001 1.74247 573.845 3.02858 579.568 5.60079C585.375 8.17301 589.854 11.9069 593.007 16.8024C596.159 21.6149 597.735 27.3402 597.735 33.9781C597.735 40.5331 596.159 46.2169 593.007 51.0294C589.854 55.759 585.375 59.4099 579.568 61.9821C573.845 64.4713 567.001 65.716 559.038 65.716H532.908L543.858 55.3856V88.8659H519.221ZM573.098 88.8659L551.448 57.1281L577.702 57.1281L599.477 88.8659L573.098 88.8659ZM543.858 57.9993L532.908 46.6733L557.545 46.6733C562.688 46.6733 566.503 45.5531 568.992 43.3128C571.564 41.0725 572.849 37.9609 572.849 33.9781C572.849 29.9124 571.564 26.7593 568.992 24.519C566.503 22.2787 562.688 21.1585 557.545 21.1585L532.908 21.1585L543.858 9.8325V57.9993Z" fill="#1E1E1E"/>
<path d="M641.936 90.6084C634.802 90.6084 627.917 89.7371 621.281 87.9947C614.728 86.1692 609.377 83.8459 605.23 81.0248L613.318 62.8533C617.216 65.3426 621.696 67.4169 626.756 69.0764C631.899 70.653 637 71.4412 642.06 71.4412C645.461 71.4412 648.199 71.1508 650.273 70.57C652.346 69.9062 653.839 69.0764 654.752 68.0807C655.747 67.0021 656.245 65.7574 656.245 64.3469C656.245 62.3555 655.333 60.779 653.508 59.6173C651.683 58.4557 649.319 57.5015 646.415 56.7547C643.512 56.0079 640.277 55.2612 636.71 54.5144C633.226 53.7676 629.701 52.8134 626.134 51.6518C622.65 50.4901 619.456 48.9966 616.553 47.1711C613.649 45.2627 611.285 42.8149 609.46 39.8279C607.635 36.7578 606.723 32.8995 606.723 28.2529C606.723 23.0255 608.133 18.2959 610.953 14.0642C613.857 9.83251 618.17 6.43054 623.894 3.85833C629.618 1.28611 636.751 0 645.295 0C651.019 0 656.618 0.663799 662.093 1.9914C667.651 3.23602 672.587 5.10294 676.9 7.59218L669.31 25.8881C665.162 23.6478 661.056 21.9883 656.992 20.9096C652.927 19.748 648.987 19.1672 645.171 19.1672C641.77 19.1672 639.033 19.5405 636.959 20.2873C634.885 20.9511 633.392 21.8638 632.479 23.0255C631.567 24.1871 631.111 25.5147 631.111 27.0083C631.111 28.9167 631.982 30.4517 633.724 31.6134C635.549 32.692 637.913 33.6048 640.816 34.3515C643.802 35.0153 647.037 35.7206 650.521 36.4674C654.088 37.2142 657.614 38.1684 661.098 39.33C664.665 40.4087 667.9 41.9022 670.803 43.8106C673.706 45.6361 676.029 48.0838 677.771 51.1539C679.596 54.141 680.509 57.9163 680.509 62.4799C680.509 67.5414 679.057 72.2295 676.154 76.5442C673.333 80.7759 669.061 84.1778 663.338 86.75C657.697 89.3223 650.563 90.6084 641.936 90.6084Z" fill="#1E1E1E"/>
<path d="M10.4518 216.123L48.9 129H73.1634L111.736 216.123L86.1039 216.123L55.9923 141.073H65.6978L35.5863 216.123H10.4518ZM31.4801 199.197L37.8259 181.025H80.3803L86.7261 199.197H31.4801Z" fill="#1E1E1E"/>
<path d="M118.721 216.123L118.721 129H139.002L187.031 186.999H177.45V129H201.59V216.123H181.308L133.279 158.124H142.86V216.123H118.721Z" fill="#1E1E1E"/>
<path d="M218.968 216.123V129H260.153C269.776 129 278.237 130.784 285.536 134.352C292.836 137.92 298.518 142.94 302.583 149.412C306.731 155.884 308.804 163.6 308.804 172.562C308.804 181.44 306.731 189.157 302.583 195.712C298.518 202.184 292.836 207.204 285.536 210.772C278.237 214.339 269.776 216.123 260.153 216.123H218.968ZM243.604 196.458H259.158C264.135 196.458 268.448 195.546 272.098 193.72C275.831 191.812 278.734 189.074 280.808 185.506C282.882 181.855 283.919 177.54 283.919 172.562C283.919 167.5 282.882 163.186 280.808 159.618C278.734 156.05 275.831 153.353 272.098 151.528C268.448 149.619 264.135 148.665 259.158 148.665H243.604V196.458Z" fill="#1E1E1E"/>
<path d="M0 344.258L38.4482 257.134H62.7116L101.284 344.258H75.6521L45.5406 269.207H55.246L25.1344 344.258H0ZM21.0283 327.331L27.3741 309.159H69.9285L76.2743 327.331H21.0283Z" fill="#1E1E1E"/>
<path d="M124.934 344.258L96.6892 257.134H122.072L145.838 332.558H133.022L158.032 257.134L180.678 257.134L204.319 332.558H192.001L216.513 257.134H240.03L211.785 344.258H185.406L165.249 280.16H172.341L151.313 344.258H124.934Z" fill="#1E1E1E"/>
<path d="M235.368 344.258L273.816 257.134H298.08L336.652 344.258H311.02L280.909 269.207H290.614L260.502 344.258H235.368ZM256.396 327.331L262.742 309.159H305.296L311.642 327.331H256.396Z" fill="#1E1E1E"/>
<path d="M343.637 344.258V257.134H383.454C391.417 257.134 398.26 258.42 403.984 260.992C409.791 263.565 414.27 267.298 417.422 272.194C420.575 277.007 422.151 282.732 422.151 289.37C422.151 295.925 420.575 301.609 417.422 306.421C414.27 311.151 409.791 314.802 403.984 317.374C398.26 319.863 391.417 321.108 383.454 321.108H357.324L368.273 310.777V344.258H343.637ZM397.514 344.258L375.863 312.52H402.118L423.893 344.258H397.514ZM368.273 313.391L357.324 302.065H381.96C387.103 302.065 390.919 300.945 393.408 298.704C395.979 296.464 397.265 293.353 397.265 289.37C397.265 285.304 395.979 282.151 393.408 279.911C390.919 277.67 387.103 276.55 381.96 276.55H357.324L368.273 265.224V313.391Z" fill="#1E1E1E"/>
<path d="M435.742 344.258V257.134H476.928C486.55 257.134 495.012 258.918 502.311 262.486C509.611 266.054 515.293 271.074 519.358 277.546C523.506 284.018 525.579 291.735 525.579 300.696C525.579 309.574 523.506 317.291 519.358 323.846C515.293 330.318 509.611 335.338 502.311 338.906C495.012 342.474 486.55 344.258 476.928 344.258H435.742ZM460.379 324.593H475.933C480.91 324.593 485.223 323.68 488.873 321.854C492.606 319.946 495.509 317.208 497.583 313.64C499.657 309.989 500.694 305.674 500.694 300.696C500.694 295.634 499.657 291.32 497.583 287.752C495.509 284.184 492.606 281.487 488.873 279.662C485.223 277.753 480.91 276.799 475.933 276.799H460.379V324.593Z" fill="#1E1E1E"/>
<path d="M569.15 346C562.017 346 555.132 345.129 548.495 343.386C541.942 341.561 536.592 339.238 532.444 336.416L540.532 318.245C544.431 320.734 548.91 322.809 553.97 324.468C559.113 326.045 564.215 326.833 569.275 326.833C572.676 326.833 575.413 326.542 577.487 325.962C579.561 325.298 581.054 324.468 581.966 323.472C582.962 322.394 583.46 321.149 583.46 319.738C583.46 317.747 582.547 316.171 580.722 315.009C578.897 313.847 576.533 312.893 573.63 312.146C570.727 311.4 567.491 310.653 563.924 309.906C560.44 309.159 556.915 308.205 553.348 307.043C549.864 305.882 546.671 304.388 543.767 302.563C540.864 300.654 538.5 298.207 536.675 295.219C534.85 292.149 533.937 288.291 533.937 283.645C533.937 278.417 535.348 273.688 538.168 269.456C541.071 265.224 545.385 261.822 551.108 259.25C556.832 256.678 563.966 255.392 572.51 255.392C578.234 255.392 583.833 256.055 589.308 257.383C594.866 258.628 599.801 260.495 604.115 262.984L596.525 281.28C592.377 279.039 588.271 277.38 584.206 276.301C580.142 275.14 576.201 274.559 572.386 274.559C568.985 274.559 566.247 274.932 564.173 275.679C562.1 276.343 560.606 277.255 559.694 278.417C558.781 279.579 558.325 280.906 558.325 282.4C558.325 284.308 559.196 285.843 560.938 287.005C562.763 288.084 565.127 288.996 568.031 289.743C571.017 290.407 574.252 291.112 577.736 291.859C581.303 292.606 584.828 293.56 588.312 294.722C591.879 295.8 595.114 297.294 598.018 299.202C600.921 301.028 603.244 303.475 604.986 306.546C606.811 309.533 607.723 313.308 607.723 317.872C607.723 322.933 606.271 327.621 603.368 331.936C600.548 336.168 596.276 339.569 590.552 342.142C584.911 344.714 577.777 346 569.15 346Z" fill="#1E1E1E"/>
</svg>
