<svg width="341" height="205" viewBox="0 0 341 205" fill="none" xmlns="http://www.w3.org/2000/svg">
<path d="M0 89.6034V1.75693H40.0907C48.1088 1.75693 54.9994 3.05371 60.7625 5.64727C66.609 8.24084 71.1192 12.0057 74.2931 16.9418C77.4669 21.7943 79.0539 27.5671 79.0539 34.2601C79.0539 40.8695 77.4669 46.6004 74.2931 51.4529C71.1192 56.3054 66.609 60.0702 60.7625 62.7475C54.9994 65.341 48.1088 66.6378 40.0907 66.6378H13.7812L24.8061 55.8452V89.6034H0ZM24.8061 58.4806L13.7812 47.0606H38.5873C43.7657 47.0606 47.6077 45.9311 50.1134 43.6722C52.7026 41.4133 53.9972 38.276 53.9972 34.2601C53.9972 30.1606 52.7026 26.9814 50.1134 24.7225C47.6077 22.4636 43.7657 21.3341 38.5873 21.3341H13.7812L24.8061 9.9141V58.4806Z" fill="#F6F6F6"/>
<path d="M91.1486 89.6034V1.75693H131.239C139.257 1.75693 146.148 3.05371 151.911 5.64727C157.758 8.24084 162.268 12.0057 165.442 16.9418C168.616 21.7943 170.202 27.5671 170.202 34.2601C170.202 40.8695 168.616 46.6004 165.442 51.4529C162.268 56.2217 157.758 59.9029 151.911 62.4965C146.148 65.0064 139.257 66.2613 131.239 66.2613H104.93L115.955 55.8452V89.6034H91.1486ZM145.396 89.6034L123.597 57.6022H150.032L171.956 89.6034H145.396ZM115.955 58.4806L104.93 47.0606H129.736C134.914 47.0606 138.756 45.9311 141.262 43.6722C143.851 41.4133 145.146 38.276 145.146 34.2601C145.146 30.1606 143.851 26.9814 141.262 24.7225C138.756 22.4636 134.914 21.3341 129.736 21.3341H104.93L115.955 9.9141V58.4806Z" fill="#F6F6F6"/>
<path d="M228.113 91.3603C221.097 91.3603 214.624 90.2309 208.694 87.9719C202.764 85.713 197.585 82.5338 193.159 78.4343C188.816 74.2512 185.433 69.3987 183.011 63.8769C180.589 58.3551 179.378 52.2895 179.378 45.6801C179.378 39.0708 180.589 33.0052 183.011 27.4834C185.433 21.9616 188.816 17.151 193.159 13.0515C197.585 8.86831 202.764 5.64727 208.694 3.38836C214.624 1.12945 221.097 0 228.113 0C235.212 0 241.685 1.12945 247.532 3.38836C253.462 5.64727 258.598 8.86831 262.942 13.0515C267.285 17.151 270.667 21.9616 273.09 27.4834C275.595 33.0052 276.848 39.0708 276.848 45.6801C276.848 52.2895 275.595 58.397 273.09 64.0024C270.667 69.5242 267.285 74.3348 262.942 78.4343C258.598 82.5338 253.462 85.713 247.532 87.9719C241.685 90.2309 235.212 91.3603 228.113 91.3603ZM228.113 70.7791C231.454 70.7791 234.544 70.1935 237.384 69.0222C240.307 67.8509 242.813 66.1777 244.901 64.0024C247.072 61.7435 248.743 59.0663 249.912 55.9707C251.165 52.8752 251.791 49.445 251.791 45.6801C251.791 41.8316 251.165 38.4014 249.912 35.3896C248.743 32.294 247.072 29.6586 244.901 27.4834C242.813 25.2245 240.307 23.5094 237.384 22.3381C234.544 21.1668 231.454 20.5812 228.113 20.5812C224.772 20.5812 221.64 21.1668 218.717 22.3381C215.877 23.5094 213.371 25.2245 211.2 27.4834C209.111 29.6586 207.441 32.294 206.188 35.3896C205.019 38.4014 204.434 41.8316 204.434 45.6801C204.434 49.445 205.019 52.8752 206.188 55.9707C207.441 59.0663 209.111 61.7435 211.2 64.0024C213.371 66.1777 215.877 67.8509 218.717 69.0222C221.64 70.1935 224.772 70.7791 228.113 70.7791Z" fill="#F6F6F6"/>
<path d="M307.173 91.3603C300.742 91.3603 294.896 90.2727 289.634 88.0974C284.455 85.8385 280.154 82.6175 276.73 78.4343L290.26 62.371C292.599 65.3829 295.021 67.6836 297.527 69.2732C300.032 70.7791 302.663 71.5321 305.419 71.5321C312.769 71.5321 316.444 67.2653 316.444 58.7316V20.9577H286.126V1.75693H341V57.2257C341 68.6876 338.118 77.263 332.355 82.9521C326.592 88.5576 318.198 91.3603 307.173 91.3603Z" fill="#F6F6F6"/>
<path d="M22.8016 149.266H63.5187V167.839H22.8016V149.266ZM24.5556 183.903H70.4093V203.103H0V115.257H68.7806V134.458H24.5556V183.903Z" fill="#F6F6F6"/>
<path d="M127.899 204.86C120.966 204.86 114.535 203.773 108.605 201.597C102.759 199.339 97.6637 196.159 93.3205 192.06C89.0609 187.96 85.72 183.15 83.2978 177.628C80.8757 172.022 79.6646 165.873 79.6646 159.18C79.6646 152.487 80.8757 146.38 83.2978 140.858C85.72 135.252 89.0609 130.4 93.3205 126.3C97.6637 122.201 102.759 119.064 108.605 116.888C114.535 114.629 120.966 113.5 127.899 113.5C136 113.5 143.225 114.922 149.573 117.767C156.004 120.611 161.349 124.711 165.609 130.065L149.823 144.372C146.984 141.025 143.851 138.473 140.427 136.717C137.086 134.96 133.328 134.081 129.152 134.081C125.56 134.081 122.261 134.667 119.254 135.838C116.247 137.009 113.658 138.724 111.487 140.983C109.399 143.159 107.728 145.794 106.475 148.89C105.306 151.985 104.721 155.415 104.721 159.18C104.721 162.945 105.306 166.375 106.475 169.471C107.728 172.566 109.399 175.243 111.487 177.502C113.658 179.678 116.247 181.351 119.254 182.522C122.261 183.693 125.56 184.279 129.152 184.279C133.328 184.279 137.086 183.401 140.427 181.644C143.851 179.887 146.984 177.335 149.823 173.989L165.609 188.295C161.349 193.566 156.004 197.665 149.573 200.593C143.225 203.438 136 204.86 127.899 204.86Z" fill="#F6F6F6"/>
<path d="M194.602 203.103V134.96H167.666V115.257H246.219V134.96H219.408V203.103H194.602Z" fill="#F6F6F6"/>
<path d="M286.036 204.86C278.853 204.86 271.921 203.982 265.239 202.225C258.641 200.384 253.253 198.042 249.077 195.197L257.221 176.875C261.146 179.385 265.656 181.476 270.751 183.15C275.93 184.739 281.066 185.534 286.161 185.534C289.585 185.534 292.342 185.241 294.43 184.656C296.518 183.986 298.021 183.15 298.94 182.146C299.942 181.058 300.443 179.803 300.443 178.381C300.443 176.373 299.525 174.783 297.687 173.612C295.85 172.441 293.469 171.479 290.546 170.726C287.623 169.973 284.365 169.22 280.774 168.467C277.266 167.714 273.716 166.752 270.125 165.58C266.617 164.409 263.401 162.903 260.478 161.063C257.555 159.138 255.174 156.67 253.337 153.658C251.499 150.563 250.581 146.673 250.581 141.987C250.581 136.717 252 131.948 254.84 127.681C257.764 123.414 262.107 119.984 267.87 117.39C273.633 114.797 280.816 113.5 289.418 113.5C295.181 113.5 300.819 114.169 306.332 115.508C311.928 116.763 316.897 118.645 321.24 121.155L313.598 139.603C309.422 137.344 305.288 135.671 301.195 134.583C297.103 133.412 293.135 132.826 289.293 132.826C285.869 132.826 283.112 133.203 281.024 133.956C278.936 134.625 277.433 135.545 276.514 136.717C275.596 137.888 275.136 139.226 275.136 140.732C275.136 142.657 276.013 144.204 277.767 145.376C279.605 146.463 281.985 147.384 284.908 148.137C287.915 148.806 291.172 149.517 294.68 150.27C298.272 151.023 301.822 151.985 305.329 153.156C308.921 154.244 312.178 155.75 315.102 157.674C318.025 159.515 320.363 161.983 322.117 165.078C323.955 168.09 324.874 171.897 324.874 176.498C324.874 181.602 323.412 186.329 320.489 190.679C317.649 194.946 313.348 198.376 307.585 200.97C301.905 203.564 294.722 204.86 286.036 204.86Z" fill="#F6F6F6"/>
</svg>
