<svg width="284" height="192" viewBox="0 0 284 192" fill="none" xmlns="http://www.w3.org/2000/svg">
<path d="M36.0258 89C29.0242 89 22.2668 88.1442 15.7537 86.4327C9.32193 84.6396 4.07071 82.3576 0 79.5865L7.93789 61.7376C11.7644 64.1827 16.1607 66.2202 21.127 67.8503C26.1747 69.3988 31.1816 70.1731 36.1479 70.1731C39.4859 70.1731 42.1726 69.8878 44.2079 69.3173C46.2433 68.6653 47.7087 67.8503 48.6043 66.8723C49.5813 65.8127 50.0697 64.5902 50.0697 63.2047C50.0697 61.2486 49.1742 59.7001 47.3831 58.5591C45.592 57.418 43.2717 56.4808 40.4222 55.7472C37.5727 55.0137 34.3975 54.2802 30.8967 53.5467C27.4773 52.8132 24.0172 51.8759 20.5164 50.7349C17.097 49.5939 13.9625 48.1268 11.113 46.3338C8.26354 44.4592 5.94324 42.0549 4.15213 39.1209C2.36101 36.1053 1.46546 32.3155 1.46546 27.7514C1.46546 22.6168 2.8495 17.9712 5.61758 13.8146C8.46708 9.65797 12.7006 6.31639 18.3182 3.78984C23.9358 1.26328 30.9374 0 39.3231 0C44.9407 0 50.4361 0.652016 55.8094 1.95605C61.2642 3.17857 66.1083 5.01236 70.3419 7.45742L62.8925 25.4286C58.8218 23.228 54.7918 21.598 50.8025 20.5385C46.8132 19.3974 42.946 18.8269 39.2009 18.8269C35.863 18.8269 33.1763 19.1937 31.1409 19.9272C29.1056 20.5792 27.6401 21.4757 26.7446 22.6168C25.849 23.7578 25.4012 25.0618 25.4012 26.5288C25.4012 28.4034 26.2561 29.9112 27.9658 31.0522C29.7569 32.1117 32.0772 33.0082 34.9267 33.7418C37.8576 34.3938 41.0328 35.0865 44.4522 35.8201C47.953 36.5536 51.4131 37.4908 54.8325 38.6319C58.3333 39.6914 61.5084 41.1584 64.3579 43.033C67.2074 44.826 69.487 47.2303 71.1967 50.2459C72.9878 53.1799 73.8834 56.8883 73.8834 61.3709C73.8834 66.3425 72.4587 70.9473 69.6092 75.1854C66.8411 79.342 62.6482 82.6836 57.0307 85.2102C51.4945 87.7367 44.4929 89 36.0258 89Z" fill="#1E1E1E"/>
<path d="M106.668 68.3393L105.325 41.1992L142.083 1.71154H168.706L132.069 41.4437L118.636 55.5027L106.668 68.3393ZM85.0527 87.2885V1.71154H108.989V87.2885H85.0527ZM142.45 87.2885L114.606 51.9574L130.36 35.0865L170.538 87.2885H142.45Z" fill="#1E1E1E"/>
<path d="M176.882 87.2885V1.71154H201.062V87.2885H176.882Z" fill="#1E1E1E"/>
<path d="M218.265 87.2885V1.71154H242.445V68.0948H283.234V87.2885H218.265Z" fill="#1E1E1E"/>
<path d="M5.61758 189.788V104.212H29.7976V170.595H70.5861V189.788H5.61758Z" fill="#1E1E1E"/>
<path d="M109.958 191.5C102.956 191.5 96.1988 190.644 89.6857 188.933C83.254 187.14 78.0028 184.858 73.9321 182.087L81.8699 164.238C85.6964 166.683 90.0928 168.72 95.0591 170.35C100.107 171.899 105.114 172.673 110.08 172.673C113.418 172.673 116.105 172.388 118.14 171.817C120.175 171.165 121.641 170.35 122.536 169.372C123.513 168.313 124.002 167.09 124.002 165.705C124.002 163.749 123.106 162.2 121.315 161.059C119.524 159.918 117.204 158.981 114.354 158.247C111.505 157.514 108.33 156.78 104.829 156.047C101.409 155.313 97.9492 154.376 94.4484 153.235C91.029 152.094 87.8946 150.627 85.0451 148.834C82.1956 146.959 79.8753 144.555 78.0842 141.621C76.2931 138.605 75.3975 134.815 75.3975 130.251C75.3975 125.117 76.7815 120.471 79.5496 116.315C82.3991 112.158 86.6327 108.816 92.2502 106.29C97.8678 103.763 104.869 102.5 113.255 102.5C118.873 102.5 124.368 103.152 129.742 104.456C135.196 105.679 140.04 107.512 144.274 109.957L136.825 127.929C132.754 125.728 128.724 124.098 124.735 123.038C120.745 121.897 116.878 121.327 113.133 121.327C109.795 121.327 107.108 121.694 105.073 122.427C103.038 123.079 101.572 123.976 100.677 125.117C99.7811 126.258 99.3333 127.562 99.3333 129.029C99.3333 130.903 100.188 132.411 101.898 133.552C103.689 134.612 106.009 135.508 108.859 136.242C111.79 136.894 114.965 137.587 118.384 138.32C121.885 139.054 125.345 139.991 128.765 141.132C132.265 142.191 135.441 143.658 138.29 145.533C141.139 147.326 143.419 149.73 145.129 152.746C146.92 155.68 147.815 159.388 147.815 163.871C147.815 168.842 146.391 173.447 143.541 177.685C140.773 181.842 136.58 185.184 130.963 187.71C125.427 190.237 118.425 191.5 109.958 191.5Z" fill="#1E1E1E"/>
</svg>
