<svg width="45" height="24" viewBox="0 0 45 24" fill="none" xmlns="http://www.w3.org/2000/svg">
<path d="M0.199951 23.5838V1.18384H10.376C12.808 1.18384 14.952 1.65317 16.808 2.59183C18.664 3.50917 20.1146 4.79983 21.16 6.46383C22.2053 8.12783 22.728 10.1012 22.728 12.3838C22.728 14.6451 22.2053 16.6185 21.16 18.3038C20.1146 19.9678 18.664 21.2691 16.808 22.2078C14.952 23.1251 12.808 23.5838 10.376 23.5838H0.199951Z" fill="#191919"/>
<path d="M35.752 23.584C34.024 23.584 32.4133 23.3067 30.92 22.752C29.448 22.176 28.168 21.3653 27.08 20.32C25.992 19.2747 25.1386 18.048 24.52 16.64C23.9226 15.232 23.624 13.6853 23.624 12C23.624 10.3147 23.9226 8.76801 24.52 7.36001C25.1386 5.95202 25.992 4.72535 27.08 3.68002C28.1893 2.63468 29.48 1.83468 30.952 1.28001C32.424 0.704016 34.0346 0.416016 35.784 0.416016C37.7253 0.416016 39.4746 0.75735 41.032 1.44002C42.6106 2.10135 43.9333 3.08268 45 4.38402L41.672 7.45602C40.904 6.58135 40.0506 5.93068 39.112 5.50401C38.1733 5.05602 37.1493 4.83202 36.04 4.83202C34.9946 4.83202 34.0346 5.00268 33.16 5.34402C32.2853 5.68535 31.528 6.17602 30.888 6.81602C30.248 7.45601 29.7466 8.21335 29.384 9.08802C29.0426 9.96268 28.872 10.9334 28.872 12C28.872 13.0667 29.0426 14.0374 29.384 14.912C29.7466 15.7867 30.248 16.544 30.888 17.184C31.528 17.824 32.2853 18.3147 33.16 18.656C34.0346 18.9973 34.9946 19.168 36.04 19.168C37.1493 19.168 38.1733 18.9547 39.112 18.528C40.0506 18.08 40.904 17.408 41.672 16.512L45 19.584C43.9333 20.8853 42.6106 21.8774 41.032 22.56C39.4746 23.2427 37.7146 23.584 35.752 23.584Z" fill="#191919"/>
</svg>
