<svg width="327" height="203" viewBox="0 0 327 203" fill="none" xmlns="http://www.w3.org/2000/svg">
<path d="M0 87.9606V0H24.7993V87.9606H0Z" fill="#1E1E1E"/>
<path d="M42.4427 87.9606V0H62.8582L111.204 58.5566H101.56V0H125.858V87.9606H105.443L57.0968 29.404H66.7409V87.9606H42.4427Z" fill="#1E1E1E"/>
<path d="M162.013 87.9606V19.7283H135.085V0H213.616V19.7283H186.812V87.9606H162.013Z" fill="#1E1E1E"/>
<path d="M245.65 34.0533H286.356V52.6507H245.65V34.0533ZM247.403 68.7349H293.244V87.9606H222.855V0H291.616V19.2257H247.403V68.7349Z" fill="#1E1E1E"/>
<path d="M0 201.241V113.28H40.0796C48.0955 113.28 54.9842 114.579 60.7456 117.176C66.5906 119.773 71.0995 123.542 74.2725 128.485C77.4455 133.344 79.032 139.124 79.032 145.826C79.032 152.444 77.4455 158.182 74.2725 163.041C71.0995 167.816 66.5906 171.502 60.7456 174.099C54.9842 176.612 48.0955 177.868 40.0796 177.868H13.7774L24.7993 167.439V201.241H0ZM54.2327 201.241L32.4394 169.198H58.8669L80.7854 201.241H54.2327ZM24.7993 170.078L13.7774 158.643H38.5766C43.7536 158.643 47.5945 157.512 50.0995 155.25C52.688 152.988 53.9822 149.847 53.9822 145.826C53.9822 141.721 52.688 138.537 50.0995 136.276C47.5945 134.014 43.7536 132.883 38.5766 132.883H13.7774L24.7993 121.448V170.078Z" fill="#1E1E1E"/>
<path d="M115.509 147.334H156.215V165.931H115.509V147.334ZM117.262 182.015H163.103V201.241H92.7134V113.28H161.475V132.506H117.262V182.015Z" fill="#1E1E1E"/>
<path d="M207.676 203C200.495 203 193.565 202.12 186.885 200.361C180.288 198.518 174.903 196.173 170.728 193.324L178.869 174.978C182.793 177.491 187.302 179.586 192.396 181.261C197.573 182.853 202.708 183.649 207.801 183.649C211.225 183.649 213.98 183.355 216.068 182.769C218.155 182.099 219.658 181.261 220.577 180.256C221.579 179.167 222.08 177.91 222.08 176.486C222.08 174.476 221.161 172.884 219.324 171.711C217.487 170.538 215.108 169.575 212.185 168.821C209.263 168.067 206.006 167.313 202.416 166.559C198.909 165.805 195.36 164.842 191.77 163.669C188.263 162.496 185.048 160.988 182.125 159.145C179.203 157.219 176.823 154.747 174.986 151.732C173.149 148.632 172.231 144.737 172.231 140.045C172.231 134.768 173.65 129.993 176.489 125.72C179.412 121.448 183.754 118.013 189.515 115.416C195.276 112.819 202.457 111.521 211.058 111.521C216.819 111.521 222.455 112.191 227.966 113.532C233.561 114.788 238.529 116.673 242.871 119.186L235.231 137.658C231.056 135.396 226.923 133.721 222.831 132.632C218.74 131.459 214.774 130.872 210.933 130.872C207.509 130.872 204.754 131.249 202.666 132.003C200.579 132.673 199.076 133.595 198.157 134.768C197.239 135.941 196.779 137.281 196.779 138.789C196.779 140.716 197.656 142.265 199.41 143.438C201.247 144.527 203.626 145.449 206.549 146.203C209.555 146.873 212.811 147.585 216.318 148.339C219.909 149.093 223.457 150.056 226.964 151.229C230.555 152.318 233.811 153.826 236.734 155.753C239.656 157.596 241.994 160.067 243.748 163.166C245.585 166.182 246.503 169.994 246.503 174.601C246.503 179.711 245.042 184.445 242.12 188.801C239.281 193.073 234.98 196.508 229.219 199.105C223.541 201.702 216.36 203 207.676 203Z" fill="#1E1E1E"/>
<path d="M275.397 201.241V133.009H248.469V113.28H327V133.009H300.197V201.241H275.397Z" fill="#1E1E1E"/>
</svg>
