<svg width="32" height="32" viewBox="0 0 32 32" fill="none" xmlns="http://www.w3.org/2000/svg">
<path d="M26.6666 23.9999H24V12.3333L16 17.3333L7.99996 12.3333V23.9999H5.33329V7.99992H6.93329L16 13.6666L25.0666 7.99992H26.6666M26.6666 5.33325H5.33329C3.85329 5.33325 2.66663 6.51992 2.66663 7.99992V23.9999C2.66663 24.7072 2.94758 25.3854 3.44767 25.8855C3.94777 26.3856 4.62605 26.6666 5.33329 26.6666H26.6666C27.3739 26.6666 28.0521 26.3856 28.5522 25.8855C29.0523 25.3854 29.3333 24.7072 29.3333 23.9999V7.99992C29.3333 7.29267 29.0523 6.6144 28.5522 6.1143C28.0521 5.6142 27.3739 5.33325 26.6666 5.33325Z" fill="white"/>
</svg>
