<svg width="17" height="17" viewBox="0 0 17 17" fill="none" xmlns="http://www.w3.org/2000/svg">
<g clip-path="url(#clip0_3_409)">
<path d="M9.20665 2.68869C9.01915 2.50143 8.76498 2.39624 8.49998 2.39624C8.23498 2.39624 7.98082 2.50143 7.79331 2.68869L4.02065 6.45936C3.83305 6.64696 3.72766 6.90139 3.72766 7.16669C3.72766 7.432 3.83305 7.68643 4.02065 7.87403C4.20824 8.06162 4.46268 8.16701 4.72798 8.16701C4.99328 8.16701 5.24772 8.06162 5.43531 7.87403L7.49998 5.81003V13.5C7.49998 13.7652 7.60534 14.0196 7.79287 14.2071C7.98041 14.3947 8.23477 14.5 8.49998 14.5C8.7652 14.5 9.01955 14.3947 9.20709 14.2071C9.39463 14.0196 9.49998 13.7652 9.49998 13.5V5.81003L11.564 7.87403C11.6569 7.96692 11.7671 8.0406 11.8885 8.09087C12.0099 8.14114 12.14 8.16701 12.2713 8.16701C12.4027 8.16701 12.5328 8.14114 12.6541 8.09087C12.7755 8.0406 12.8858 7.96692 12.9786 7.87403C13.0715 7.78114 13.1452 7.67086 13.1955 7.5495C13.2458 7.42814 13.2716 7.29806 13.2716 7.16669C13.2716 7.03533 13.2458 6.90525 13.1955 6.78389C13.1452 6.66252 13.0715 6.55225 12.9786 6.45936L9.20665 2.68869Z" fill="#191919"/>
</g>
<defs>
<clipPath id="clip0_3_409">
<rect width="16" height="16" fill="white" transform="translate(0.5 0.5)"/>
</clipPath>
</defs>
</svg>
