<svg width="269" height="218" viewBox="0 0 269 218" fill="none" xmlns="http://www.w3.org/2000/svg">
<g filter="url(#filter0_b_1_47)">
<path d="M0 66.9392V1.31253H29.9463C35.9356 1.31253 41.0826 2.28131 45.3874 4.21886C49.7546 6.15641 53.1235 8.96898 55.4943 12.6566C57.865 16.2817 59.0504 20.5943 59.0504 25.5944C59.0504 30.532 57.865 34.8134 55.4943 38.4385C53.1235 42.0636 49.7546 44.8761 45.3874 46.8762C41.0826 48.8137 35.9356 49.7825 29.9463 49.7825H10.294L18.5293 41.7198V66.9392H0ZM18.5293 43.6886L10.294 35.1571H28.8233C32.6914 35.1571 35.5613 34.3134 37.4329 32.6258C39.3669 30.9383 40.334 28.5945 40.334 25.5944C40.334 22.5318 39.3669 20.1568 37.4329 18.4692C35.5613 16.7817 32.6914 15.9379 28.8233 15.9379H10.294L18.5293 7.40644V43.6886Z" fill="white" fill-opacity="0.5"/>
<path d="M102.033 68.2517C96.7926 68.2517 91.9575 67.408 87.5279 65.7204C83.0984 64.0329 79.2303 61.6578 75.9237 58.5952C72.6795 55.4702 70.1528 51.8451 68.3436 47.72C66.5343 43.5949 65.6297 39.0635 65.6297 34.1259C65.6297 29.1882 66.5343 24.6569 68.3436 20.5318C70.1528 16.4067 72.6795 12.8128 75.9237 9.75025C79.2303 6.62517 83.0984 4.21886 87.5279 2.53132C91.9575 0.843772 96.7926 0 102.033 0C107.336 0 112.171 0.843772 116.538 2.53132C120.968 4.21886 124.805 6.62517 128.049 9.75025C131.293 12.8128 133.82 16.4067 135.629 20.5318C137.501 24.6569 138.437 29.1882 138.437 34.1259C138.437 39.0635 137.501 43.6261 135.629 47.8137C133.82 51.9388 131.293 55.5327 128.049 58.5952C124.805 61.6578 120.968 64.0329 116.538 65.7204C112.171 67.408 107.336 68.2517 102.033 68.2517ZM102.033 52.8763C104.529 52.8763 106.837 52.4388 108.958 51.5638C111.142 50.6888 113.013 49.4388 114.573 47.8137C116.195 46.1262 117.443 44.1261 118.316 41.8136C119.252 39.501 119.72 36.9384 119.72 34.1259C119.72 31.2508 119.252 28.6882 118.316 26.4382C117.443 24.1256 116.195 22.1568 114.573 20.5318C113.013 18.8442 111.142 17.563 108.958 16.6879C106.837 15.8129 104.529 15.3754 102.033 15.3754C99.5376 15.3754 97.1981 15.8129 95.0145 16.6879C92.8933 17.563 91.0217 18.8442 89.3996 20.5318C87.8399 22.1568 86.5921 24.1256 85.6563 26.4382C84.7828 28.6882 84.3461 31.2508 84.3461 34.1259C84.3461 36.9384 84.7828 39.501 85.6563 41.8136C86.5921 44.1261 87.8399 46.1262 89.3996 47.8137C91.0217 49.4388 92.8933 50.6888 95.0145 51.5638C97.1981 52.4388 99.5376 52.8763 102.033 52.8763Z" fill="white" fill-opacity="0.5"/>
<path d="M148.141 66.9392V1.31253H178.088C184.077 1.31253 189.224 2.28131 193.529 4.21886C197.896 6.15641 201.265 8.96898 203.636 12.6566C206.006 16.2817 207.192 20.5943 207.192 25.5944C207.192 30.532 206.006 34.8134 203.636 38.4385C201.265 42.0011 197.896 44.7511 193.529 46.6887C189.224 48.5637 184.077 49.5013 178.088 49.5013H158.436L166.671 41.7198V66.9392H148.141ZM188.663 66.9392L172.379 43.0323H192.125L208.502 66.9392H188.663ZM166.671 43.6886L158.436 35.1571H176.965C180.833 35.1571 183.703 34.3134 185.574 32.6258C187.508 30.9383 188.475 28.5945 188.475 25.5944C188.475 22.5318 187.508 20.1568 185.574 18.4692C183.703 16.7817 180.833 15.9379 176.965 15.9379H158.436L166.671 7.40644V43.6886Z" fill="white" fill-opacity="0.5"/>
<path d="M230.444 66.9392V16.0317H210.324V1.31253H269V16.0317H248.973V66.9392H230.444Z" fill="white" fill-opacity="0.5"/>
<path d="M17.2191 104.952H47.4462V119.297H17.2191V104.952ZM18.5293 141.797H0V76.1705H51.3767V90.5146H18.5293V141.797Z" fill="white" fill-opacity="0.5"/>
<path d="M92.5287 143.11C87.2881 143.11 82.453 142.266 78.0235 140.578C73.5939 138.891 69.7258 136.516 66.4193 133.453C63.1751 130.328 60.6484 126.703 58.8391 122.578C57.0299 118.453 56.1252 113.921 56.1252 108.984C56.1252 104.046 57.0299 99.5148 58.8391 95.3897C60.6484 91.2646 63.1751 87.6708 66.4193 84.6082C69.7258 81.4832 73.5939 79.0768 78.0235 77.3893C82.453 75.7017 87.2881 74.858 92.5287 74.858C97.8317 74.858 102.667 75.7017 107.034 77.3893C111.464 79.0768 115.3 81.4832 118.545 84.6082C121.789 87.6708 124.315 91.2646 126.125 95.3897C127.996 99.5148 128.932 104.046 128.932 108.984C128.932 113.921 127.996 118.484 126.125 122.672C124.315 126.797 121.789 130.391 118.545 133.453C115.3 136.516 111.464 138.891 107.034 140.578C102.667 142.266 97.8317 143.11 92.5287 143.11ZM92.5287 127.734C95.0242 127.734 97.3326 127.297 99.4538 126.422C101.637 125.547 103.509 124.297 105.069 122.672C106.691 120.984 107.939 118.984 108.812 116.672C109.748 114.359 110.216 111.796 110.216 108.984C110.216 106.109 109.748 103.546 108.812 101.296C107.939 98.9836 106.691 97.0148 105.069 95.3897C103.509 93.7022 101.637 92.4209 99.4538 91.5459C97.3326 90.6709 95.0242 90.2334 92.5287 90.2334C90.0332 90.2334 87.6936 90.6709 85.51 91.5459C83.3888 92.4209 81.5172 93.7022 79.8951 95.3897C78.3354 97.0148 77.0876 98.9836 76.1518 101.296C75.2784 103.546 74.8417 106.109 74.8417 108.984C74.8417 111.796 75.2784 114.359 76.1518 116.672C77.0876 118.984 78.3354 120.984 79.8951 122.672C81.5172 124.297 83.3888 125.547 85.51 126.422C87.6936 127.297 90.0332 127.734 92.5287 127.734Z" fill="white" fill-opacity="0.5"/>
<path d="M138.637 141.797V76.1705H157.166V127.078H188.423V141.797H138.637Z" fill="white" fill-opacity="0.5"/>
<path d="M0.000446235 216.687V151.061H18.5297V216.687H0.000446235Z" fill="white" fill-opacity="0.5"/>
<path d="M64.7469 218C59.5063 218 54.6712 217.156 50.2417 215.469C45.8121 213.781 41.9441 211.406 38.6375 208.343C35.3933 205.218 32.8666 201.593 31.0573 197.468C29.2481 193.343 28.3434 188.812 28.3434 183.874C28.3434 178.936 29.2481 174.405 31.0573 170.28C32.8666 166.155 35.3933 162.561 38.6375 159.498C41.9441 156.373 45.8121 153.967 50.2417 152.28C54.6712 150.592 59.5063 149.748 64.7469 149.748C70.0499 149.748 74.885 150.592 79.2522 152.28C83.6817 153.967 87.5186 156.373 90.7628 159.498C94.007 162.561 96.5337 166.155 98.343 170.28C100.215 174.405 101.15 178.936 101.15 183.874C101.15 188.812 100.215 193.374 98.343 197.562C96.5337 201.687 94.007 205.281 90.7628 208.343C87.5186 211.406 83.6817 213.781 79.2522 215.469C74.885 217.156 70.0499 218 64.7469 218ZM64.7469 202.625C67.2425 202.625 69.5508 202.187 71.672 201.312C73.8556 200.437 75.7273 199.187 77.287 197.562C78.909 195.874 80.1568 193.874 81.0302 191.562C81.9661 189.249 82.434 186.687 82.434 183.874C82.434 180.999 81.9661 178.436 81.0302 176.186C80.1568 173.874 78.909 171.905 77.287 170.28C75.7273 168.592 73.8556 167.311 71.672 166.436C69.5508 165.561 67.2425 165.124 64.7469 165.124C62.2514 165.124 59.9119 165.561 57.7283 166.436C55.6071 167.311 53.7354 168.592 52.1133 170.28C50.5536 171.905 49.3059 173.874 48.37 176.186C47.4966 178.436 47.0599 180.999 47.0599 183.874C47.0599 186.687 47.4966 189.249 48.37 191.562C49.3059 193.874 50.5536 195.874 52.1133 197.562C53.7354 199.187 55.6071 200.437 57.7283 201.312C59.9119 202.187 62.2514 202.625 64.7469 202.625Z" fill="white" fill-opacity="0.5"/>
</g>
<defs>
<filter id="filter0_b_1_47" x="-3.1" y="-3.1" width="275.2" height="224.2" filterUnits="userSpaceOnUse" color-interpolation-filters="sRGB">
<feFlood flood-opacity="0" result="BackgroundImageFix"/>
<feGaussianBlur in="BackgroundImageFix" stdDeviation="1.55"/>
<feComposite in2="SourceAlpha" operator="in" result="effect1_backgroundBlur_1_47"/>
<feBlend mode="normal" in="SourceGraphic" in2="effect1_backgroundBlur_1_47" result="shape"/>
</filter>
</defs>
</svg>
