<svg width="79" height="80" viewBox="0 0 79 80" fill="none" xmlns="http://www.w3.org/2000/svg">
<path d="M39.5 35.5555C50.4722 35.5555 59.7986 33.8148 67.4792 30.3333C75.1597 26.8518 79 22.6666 79 17.7778C79 12.8889 75.1597 8.7037 67.4792 5.22222C59.7986 1.74074 50.4722 0 39.5 0C28.5278 0 19.2014 1.74074 11.5208 5.22222C3.84028 8.7037 0 12.8889 0 17.7778C0 22.6666 3.84028 26.8518 11.5208 30.3333C19.2014 33.8148 28.5278 35.5555 39.5 35.5555ZM39.5 46.6666C42.4991 46.6666 46.2486 46.3511 50.7487 45.72C55.2488 45.0888 59.5821 44.0711 63.7486 42.6666C67.9151 41.2622 71.4994 39.4296 74.5014 37.1688C77.5034 34.9081 79.0029 32.1481 79 28.8889V40C79 43.2592 77.5005 46.0192 74.5014 48.2799C71.5023 50.5407 67.918 52.3733 63.7486 53.7777C59.5792 55.1822 55.2459 56.2014 50.7487 56.8355C46.2516 57.4696 42.502 57.7836 39.5 57.7777C36.498 57.7718 32.7499 57.4562 28.2557 56.8311C23.7614 56.2059 19.4267 55.1881 15.2514 53.7777C11.0761 52.3674 7.49183 50.5348 4.49861 48.2799C1.50539 46.0251 0.00585185 43.2651 0 40V28.8889C0 32.1481 1.49954 34.9081 4.49861 37.1688C7.49768 39.4296 11.0819 41.2622 15.2514 42.6666C19.4208 44.0711 23.7556 45.0903 28.2557 45.7244C32.7557 46.3585 36.5038 46.6725 39.5 46.6666ZM39.5 68.8888C42.4991 68.8888 46.2486 68.5733 50.7487 67.9422C55.2488 67.311 59.5821 66.2933 63.7486 64.8888C67.9151 63.4844 71.4994 61.6518 74.5014 59.3911C77.5034 57.1303 79.0029 54.3703 79 51.1111V62.2222C79 65.4814 77.5005 68.2414 74.5014 70.5022C71.5023 72.7629 67.918 74.5955 63.7486 75.9999C59.5792 77.4044 55.2459 78.4236 50.7487 79.0577C46.2516 79.6918 42.502 80.0058 39.5 79.9999C36.498 79.994 32.7499 79.6784 28.2557 79.0533C23.7614 78.4281 19.4267 77.4103 15.2514 75.9999C11.0761 74.5896 7.49183 72.757 4.49861 70.5022C1.50539 68.2473 0.00585185 65.4873 0 62.2222V51.1111C0 54.3703 1.49954 57.1303 4.49861 59.3911C7.49768 61.6518 11.0819 63.4844 15.2514 64.8888C19.4208 66.2933 23.7556 67.3125 28.2557 67.9466C32.7557 68.5807 36.5038 68.8947 39.5 68.8888Z" fill="white"/>
</svg>
