<svg width="81" height="81" viewBox="0 0 81 81" fill="none" xmlns="http://www.w3.org/2000/svg">
<path d="M18.4625 54.4714C27.1357 55.0625 28.9893 54.8482 28.9893 56.6036C28.9893 60.175 17.2839 60.1857 17.2839 56.875C17.2857 55.9661 17.8714 55.1964 18.4625 54.4714ZM23.4536 33.6429C17.6875 33.6429 17.4268 41.5839 23.3196 41.5839C29.125 41.5839 28.9821 33.6429 23.4536 33.6429ZM80.5 9.07143V71.9286C80.5 74.2019 79.5969 76.382 77.9895 77.9895C76.382 79.5969 74.2019 80.5 71.9286 80.5H9.07143C6.79814 80.5 4.61797 79.5969 3.01051 77.9895C1.40306 76.382 0.5 74.2019 0.5 71.9286L0.5 9.07143C0.5 6.79814 1.40306 4.61797 3.01051 3.01051C4.61797 1.40306 6.79814 0.5 9.07143 0.5H71.9286C74.2019 0.5 76.382 1.40306 77.9895 3.01051C79.5969 4.61797 80.5 6.79814 80.5 9.07143ZM39.9643 21.4482C39.9643 24.0357 41.4607 25.5339 44.0464 25.5339C46.6786 25.5339 48.1768 24.0357 48.1768 21.4482C48.1768 18.8607 46.6821 17.4643 44.05 17.4643C41.4643 17.4643 39.9643 18.8643 39.9643 21.4482ZM36.0679 29.6071H27.2196C22.7554 28.4375 12.6554 28.7411 12.6554 37.9554C12.6554 41.3125 14.3339 43.6696 16.5571 44.7607C13.7554 47.3268 12.4286 48.5357 12.4286 50.25C12.4286 51.4768 12.9268 52.6107 14.425 53.2429C12.8357 54.7429 11.925 55.8286 11.925 57.8714C11.9286 61.4554 15.0589 63.5357 23.2714 63.5357C31.1679 63.5357 35.7482 60.5875 35.7482 55.3696C35.7482 48.8214 30.7071 49.0625 18.825 48.3375L20.3214 45.9393C23.3571 46.7857 33.5696 47.0518 33.5696 38.3625C33.5696 36.275 32.7071 34.8232 31.8911 33.7786L36.0661 33.4607L36.0679 29.6071ZM51.1286 49.2214L48.8071 48.9036C48.125 48.8125 48.0804 48.725 48.0804 47.9946V29.1643H38.6875L38.1893 32.8375C41.0018 33.8286 41.225 33.7054 41.225 34.6536V48C41.225 49.0036 41.1696 48.8179 38.1893 49.2268V52.8089H51.1214L51.1286 49.2214ZM69.0714 51.0357L67.8446 47.0411C60.5357 49.7857 61.0857 44.825 61.0857 44.0536V33.2107H67.8446V28.6732H61.4482C60.9357 28.6732 61.0911 29.1232 61.0911 21.775H56.7732C56.275 26.7214 54.6875 28.7179 50.7018 29.1714V33.2107C54.3571 33.2107 54.2411 33.0589 54.2411 33.6643V45.5518C54.2411 50.6804 56.2821 52.8571 61.6821 52.8571C64.2625 52.8571 67.1196 51.9946 69.0714 51.0357Z" fill="white"/>
</svg>
