<svg width="81" height="78" viewBox="0 0 81 78" fill="none" xmlns="http://www.w3.org/2000/svg">
<path d="M77.7867 29.2784L71.8667 25.7916C70.4946 24.9678 69.3605 23.8039 68.5753 22.4136C67.7901 21.0233 67.3806 19.4541 67.3867 17.8592V10.8756C67.3867 9.44573 66.7534 8.09878 65.6667 7.19971C62.4336 4.52366 58.7967 2.37175 54.8901 0.823258C54.248 0.568499 53.5558 0.463258 52.8666 0.515584C52.1774 0.567911 51.5093 0.776418 50.9134 1.12516L44.9901 4.62856C43.6359 5.43402 42.0877 5.85935 40.5101 5.85935C38.9325 5.85935 37.3844 5.43402 36.0301 4.62856L30.1068 1.12516C29.5112 0.774057 28.8422 0.564458 28.1519 0.51267C27.4616 0.460883 26.7686 0.568304 26.1268 0.826576C22.2234 2.37161 18.5889 4.51899 15.3569 7.18976C14.8168 7.63942 14.3828 8.20182 14.0856 8.83708C13.7883 9.47234 13.6351 10.1649 13.6369 10.8657V17.8459C13.6369 21.1171 11.9369 24.1394 9.15687 25.7817L3.24356 29.2718C2.03356 29.9851 1.21023 31.2225 0.993562 32.6325C0.657935 34.7392 0.49296 36.8694 0.50023 39.0023C0.50023 41.1654 0.661341 43.2843 0.983562 45.3589C1.20023 46.7689 2.02356 48.0163 3.23356 48.7296L9.14687 52.2197C10.5195 53.0438 11.6538 54.2082 12.439 55.5992C13.2243 56.9901 13.6335 58.56 13.6269 60.1555V67.1357C13.6269 68.5656 14.2635 69.9126 15.3469 70.8116C18.5635 73.4657 22.1935 75.6288 26.1168 77.1781C27.4268 77.6924 28.8868 77.5895 30.0968 76.8762L36.0201 73.3761C37.3744 72.5707 38.9225 72.1454 40.5001 72.1454C42.0777 72.1454 43.6259 72.5707 44.9801 73.3761L50.9034 76.8762C52.1134 77.5895 53.5834 77.6924 54.8801 77.1781C58.7851 75.6314 62.4208 73.4817 65.6534 70.8083C66.193 70.359 66.6267 69.7971 66.924 69.1625C67.2212 68.5278 67.3746 67.8359 67.3734 67.1357V60.1555C67.3667 58.56 67.776 56.9901 68.5612 55.5992C69.3464 54.2082 70.4808 53.0438 71.8534 52.2197L77.7667 48.7296C78.9767 48.0163 79.8 46.7788 80.0167 45.3589C80.3344 43.2843 80.4956 41.1654 80.5 39.0023C80.5 36.8348 80.3389 34.7149 80.0167 32.6425C79.9195 31.9521 79.6686 31.292 79.2822 30.7105C78.8958 30.129 78.3837 29.6409 77.7833 29.2817L77.7867 29.2784ZM40.5101 63.5825C27.2402 63.5825 16.4769 52.578 16.4769 39.009C16.4769 25.4399 27.2402 14.4387 40.5101 14.4387C53.7801 14.4387 64.5434 25.4399 64.5434 39.009C64.5434 52.578 53.7767 63.5825 40.5101 63.5825Z" fill="white"/>
</svg>
